<?xml version="1.0" encoding="UTF-8" standalone="no"?>
<!-- Created with Inkscape (http://www.inkscape.org/) -->

<svg
   width="600"
   height="350"
   viewBox="0 0 158.74999 92.60417"
   version="1.1"
   id="svg5"
   inkscape:version="1.1.1 (3bf5ae0, 2021-09-20)"
   sodipodi:docname="spider02.svg"
   xmlns:inkscape="http://www.inkscape.org/namespaces/inkscape"
   xmlns:sodipodi="http://sodipodi.sourceforge.net/DTD/sodipodi-0.dtd"
   xmlns="http://www.w3.org/2000/svg"
   xmlns:svg="http://www.w3.org/2000/svg">
  <sodipodi:namedview
     id="namedview7"
     pagecolor="#ffffff"
     bordercolor="#666666"
     borderopacity="1.0"
     inkscape:pageshadow="2"
     inkscape:pageopacity="0.0"
     inkscape:pagecheckerboard="0"
     inkscape:document-units="px"
     showgrid="false"
     units="px"
     fit-margin-top="0"
     fit-margin-left="0"
     fit-margin-right="0"
     fit-margin-bottom="0"
     inkscape:zoom="0.52738496"
     inkscape:cx="231.33007"
     inkscape:cy="397.24303"
     inkscape:window-width="1280"
     inkscape:window-height="975"
     inkscape:window-x="0"
     inkscape:window-y="25"
     inkscape:window-maximized="1"
     inkscape:current-layer="layer2" />
  <defs
     id="defs2" />
  <g
     inkscape:groupmode="layer"
     id="layer2"
     inkscape:label="layer2"
     style="display:inline">
    <g
       id="g83833">
      <path
         style="color:#000000;fill:#474141;stroke-width:1;stroke-linecap:round;-inkscape-stroke:none"
         d="m 131.29611,12.374521 c -3.81259,-0.0797 -7.44002,0.659888 -10.72688,2.096011 -6.57371,2.872246 -11.75384,8.426954 -14.77696,15.363528 a 2.5482752,2.5482752 0 0 0 1.31791,3.354073 2.5482752,2.5482752 0 0 0 3.35408,-1.317915 c 2.57003,-5.896964 6.88422,-10.430516 12.14569,-12.729406 5.26147,-2.29889 11.50147,-2.467264 18.40523,0.68803 a 2.5482752,2.5482752 0 0 0 3.37687,-1.258063 2.5482752,2.5482752 0 0 0 -1.25806,-3.376875 c -4.02719,-1.840584 -8.02529,-2.73968 -11.83788,-2.819383 z"
         id="path59441" />
      <path
         style="color:#000000;fill:#474141;stroke-width:1;stroke-linecap:round;-inkscape-stroke:none"
         d="m 132.70637,41.353287 c -6.94596,-0.233783 -13.84268,1.686393 -19.47289,5.759612 a 2.5482752,2.5482752 0 0 0 -0.5706,3.558146 2.5482752,2.5482752 0 0 0 3.55814,0.571173 c 9.26432,-6.702338 23.23384,-6.412478 33.12233,1.295115 a 2.5482752,2.5482752 0 0 0 3.57639,-0.442916 2.5482752,2.5482752 0 0 0 -0.44348,-3.576957 c -5.82852,-4.543038 -12.82392,-6.930392 -19.76989,-7.164173 z"
         id="path61719" />
      <path
         style="color:#000000;fill:#474141;stroke-width:1;stroke-linecap:round;-inkscape-stroke:none"
         d="m 114.41801,66.588645 c -1.73215,0.07958 -3.45087,0.320698 -5.12973,0.725652 a 2.5482752,2.5482752 0 0 0 -1.87997,3.074756 2.5482752,2.5482752 0 0 0 3.07476,1.879401 c 10.86926,-2.621747 24.09974,3.021159 28.39505,16.994391 a 2.5482752,2.5482752 0 0 0 3.18477,1.687297 2.5482752,2.5482752 0 0 0 1.68673,-3.184774 C 139.32868,73.383446 126.54304,66.031601 114.41801,66.588645 Z"
         id="path61721" />
      <path
         style="color:#000000;fill:#474141;stroke-width:1;stroke-linecap:round;-inkscape-stroke:none"
         d="M 32.059646,1.541615 C 27.793611,1.554641 23.308871,2.6394393 18.773888,4.4180012 a 2.5482752,2.5482752 0 0 0 -1.441613,3.3027709 2.5482752,2.5482752 0 0 0 3.302771,1.4421833 C 27.229348,6.576755 33.097641,5.8931539 37.750856,7.5566026 42.40407,9.2200513 46.296037,13.197882 48.995325,21.342849 a 2.5482752,2.5482752 0 0 0 3.220687,1.617184 2.5482752,2.5482752 0 0 0 1.617182,-3.220116 C 50.812977,10.626559 45.775294,5.0129357 39.466084,2.7574952 37.100129,1.9117051 34.619267,1.5337992 32.059646,1.541615 Z"
         id="path61723" />
      <path
         style="color:#000000;fill:#474141;stroke-width:1;stroke-linecap:round;-inkscape-stroke:none"
         d="m 25.009479,23.94391 c -6.375564,0.439892 -12.621044,4.215996 -18.8526998,9.699111 a 2.5482752,2.5482752 0 0 0 -0.2297233,3.596908 2.5482752,2.5482752 0 0 0 3.596338,0.229724 c 5.8084781,-5.11077 11.3132851,-8.128952 15.8366551,-8.441049 4.52337,-0.312098 8.467576,1.597098 12.46662,7.882987 a 2.5482752,2.5482752 0 0 0 3.518244,0.782083 2.5482752,2.5482752 0 0 0 0.782086,-3.517673 C 37.488912,26.885637 31.385042,23.504017 25.009479,23.94391 Z"
         id="path61725" />
      <path
         style="color:#000000;fill:#474141;stroke-width:1;stroke-linecap:round;-inkscape-stroke:none"
         d="m 30.56787,54.747349 c -3.655569,0.146451 -7.016901,1.410947 -9.86043,3.46409 -5.687057,4.106289 -9.597065,10.883238 -12.044796,17.722895 a 2.5482752,2.5482752 0 0 0 1.540799,3.257738 2.5482752,2.5482752 0 0 0 3.257738,-1.540228 c 2.214789,-6.188752 5.853252,-12.148592 10.229242,-15.308234 4.375989,-3.159642 9.194931,-4.004224 15.875418,0.01424 A 2.5482752,2.5482752 0 0 0 43.062993,61.487982 2.5482752,2.5482752 0 0 0 42.193122,57.99083 C 38.173109,55.572703 34.223439,54.600901 30.56787,54.747349 Z"
         id="path61727" />
      <ellipse
         style="fill:#474141;fill-opacity:1;stroke:none;stroke-width:0.264583"
         id="path103"
         cx="77.465675"
         cy="49.019329"
         rx="41.957321"
         ry="36.419575" />
      <ellipse
         style="fill:#000000;stroke:none;stroke-width:0.132291"
         id="ellipse253"
         cx="59.209095"
         cy="49.055"
         rx="10.319672"
         ry="10.314537" />
      <ellipse
         style="fill:#000000;stroke:none;stroke-width:0.132291"
         id="ellipse309"
         cx="94.280113"
         cy="50.584232"
         rx="10.319672"
         ry="10.314537" />
      <circle
         style="fill:#ffffff;stroke:none;stroke-width:0.132292"
         id="circle415"
         cx="97.963028"
         cy="48.926201"
         r="4.010098" />
      <path
         style="fill:#fe0065;fill-opacity:1;stroke:none;stroke-width:0.0264583;stroke-linecap:butt;stroke-linejoin:miter;stroke-opacity:1"
         d="m 64.022161,63.398258 c 5.56848,0.804731 10.92539,1.708647 21.479247,0.176168 -0.846543,6.886339 -1.527185,14.198279 -7.50779,15.998309 -3.500964,1.06761 -6.114542,0.153213 -8.629233,-0.982046 -3.785591,-2.579314 -5.407414,-7.840425 -5.342224,-15.192431 z"
         id="path450"
         sodipodi:nodetypes="ccccc" />
      <circle
         style="fill:#ffffff;stroke:none;stroke-width:0.132292"
         id="path333"
         cx="62.860386"
         cy="47.462997"
         r="4.010098" />
    </g>
  </g>
</svg>
